<?xml version="1.0" standalone="no"?>
<!DOCTYPE svg PUBLIC "-//W3C//DTD SVG 20010904//EN"
 "http://www.w3.org/TR/2001/REC-SVG-20010904/DTD/svg10.dtd">
<svg version="1.0" xmlns="http://www.w3.org/2000/svg"
 width="600.000000pt" height="600.000000pt" viewBox="0 0 600.000000 600.000000"
 preserveAspectRatio="xMidYMid meet">
<metadata>
Created by potrace 1.11, written by Peter Selinger 2001-2013
</metadata>
<g transform="translate(0.000000,600.000000) scale(0.100000,-0.100000)"
fill="#000000" stroke="none">
<path d="M2358 5635 c-284 -48 -548 -221 -711 -466 -80 -121 -147 -278 -163
-384 -4 -30 -14 -51 -28 -61 -11 -8 -62 -41 -111 -73 -237 -155 -417 -432
-466 -718 -11 -63 -16 -73 -68 -128 -347 -366 -406 -923 -146 -1355 25 -41 50
-82 57 -91 8 -12 5 -37 -15 -110 -102 -360 -14 -759 227 -1037 77 -90 195
-187 284 -236 53 -29 73 -47 86 -74 37 -77 127 -200 201 -274 139 -139 304
-235 493 -285 85 -23 116 -26 257 -26 141 0 172 3 257 26 112 30 239 87 327
146 l61 42 0 2528 0 2528 -78 21 c-156 43 -314 52 -464 27z m335 -171 l37 -7
0 -903 0 -904 -60 44 c-94 69 -156 90 -275 90 -84 1 -114 -4 -188 -28 -48 -16
-122 -49 -165 -75 l-76 -46 -82 81 c-89 89 -254 204 -291 204 -67 0 -111 -62
-87 -124 3 -8 49 -44 103 -80 127 -85 232 -194 278 -292 33 -69 35 -79 32
-158 -4 -76 -8 -92 -46 -166 -24 -45 -43 -93 -43 -106 0 -39 42 -74 89 -74 47
0 74 27 120 123 63 129 75 231 41 362 -14 56 -17 82 -9 91 21 26 178 95 249
110 158 33 281 -36 361 -202 16 -35 34 -66 39 -69 6 -4 10 -498 10 -1360 l0
-1353 -42 -25 c-129 -75 -276 -112 -443 -111 -126 1 -194 14 -318 60 -139 53
-303 183 -397 317 -41 58 -50 80 -66 160 -23 122 -24 319 -1 404 48 179 143
268 320 299 91 16 167 8 241 -25 56 -24 137 -99 171 -157 14 -24 34 -48 45
-54 50 -27 112 2 126 57 17 68 -126 242 -247 301 -127 62 -241 76 -387 46
-225 -45 -375 -189 -438 -419 -9 -33 -18 -119 -21 -193 -3 -72 -8 -132 -11
-132 -12 0 -110 82 -158 132 -135 139 -219 304 -254 498 -19 107 -9 361 17
403 3 4 20 -4 39 -18 68 -52 159 -87 242 -92 142 -10 267 36 402 150 81 68
209 219 236 279 22 49 5 94 -42 114 -50 21 -85 3 -129 -64 -21 -31 -79 -98
-129 -148 -187 -187 -321 -205 -507 -68 -100 73 -221 269 -270 435 -30 106
-38 334 -14 450 37 182 125 348 256 481 l79 80 10 71 c17 116 39 185 96 302
91 186 221 320 401 412 l92 47 7 45 c23 172 102 356 206 484 140 173 346 292
563 327 60 9 218 6 288 -6z"/>
<path d="M3230 5640 c-30 -5 -92 -18 -137 -31 l-83 -22 0 -2528 0 -2528 61
-42 c88 -59 215 -116 327 -146 85 -23 116 -26 257 -26 141 0 172 3 258 26 180
48 329 133 487 276 95 86 151 157 201 255 31 63 43 75 96 106 94 55 153 103
239 192 287 300 377 703 253 1133 -11 38 -10 42 26 95 83 122 149 288 176 440
18 104 16 296 -5 403 -41 211 -141 408 -291 567 -49 52 -53 60 -69 145 -58
303 -278 609 -534 742 -37 20 -54 35 -58 53 -90 414 -350 718 -724 845 -142
49 -332 66 -480 45z m249 -170 c194 -25 366 -107 506 -241 156 -150 248 -326
285 -546 l12 -72 81 -40 c228 -113 409 -334 477 -581 26 -98 26 -100 -13 -100
-48 0 -132 -45 -167 -90 -57 -72 -87 -163 -90 -275 -5 -137 -1 -165 25 -190
32 -33 84 -33 122 -1 26 23 28 28 25 94 -3 83 13 193 34 233 29 56 111 72 180
35 48 -25 153 -176 198 -283 60 -143 71 -205 70 -388 0 -155 -3 -178 -27 -258
-15 -48 -43 -120 -63 -160 -32 -63 -38 -70 -48 -53 -131 223 -268 362 -438
446 -165 80 -343 101 -533 61 -202 -42 -267 -93 -223 -174 28 -53 59 -58 169
-23 306 98 562 19 766 -238 65 -82 152 -248 191 -361 42 -123 55 -219 49 -359
-8 -196 -55 -345 -157 -497 -43 -64 -180 -208 -216 -227 -17 -9 -19 -6 -22 41
-7 122 -38 236 -103 376 -43 93 -133 233 -173 271 -38 34 -91 33 -122 -4 -38
-43 -31 -74 40 -179 174 -257 228 -508 146 -684 -160 -345 -530 -557 -897
-513 -117 14 -203 40 -305 91 l-78 39 0 2415 c0 2002 2 2417 13 2421 16 6 129
21 172 23 17 0 68 -4 114 -9z"/>
<path d="M3663 3848 c-147 -142 -255 -314 -294 -466 -24 -93 -25 -240 -3 -326
22 -86 79 -198 128 -251 36 -38 48 -45 80 -45 27 0 43 7 61 26 35 38 33 82 -6
130 -48 60 -87 151 -100 234 -10 63 -9 88 4 153 30 145 92 251 236 400 82 85
95 103 95 132 0 50 -36 85 -87 85 -35 0 -47 -7 -114 -72z"/>
<path d="M3415 2338 c-31 -18 -44 -40 -45 -76 0 -40 28 -70 116 -122 93 -56
225 -192 265 -275 59 -121 52 -244 -21 -359 -36 -56 -38 -96 -6 -132 31 -37
84 -38 122 -3 35 32 91 145 111 222 32 127 1 285 -82 412 -57 87 -186 212
-294 283 -95 62 -127 72 -166 50z"/>
</g>
</svg>
